<svg xmlns="http://www.w3.org/2000/svg" viewBox="0 0 400 260" width="400" height="260">
  <rect width="400" height="260" rx="8" fill="#f3f4f6"/>
  <rect x="12" y="12" width="376" height="28" rx="4" fill="#e5e7eb"/>
  <circle cx="22" cy="26" r="4" fill="#d1d5db"/>
  <circle cx="38" cy="26" r="4" fill="#d1d5db"/>
  <circle cx="54" cy="26" r="4" fill="#d1d5db"/>
  <text x="24" y="58" font-family="system-ui,sans-serif" font-size="16" font-weight="700" fill="#1f2937">Today</text>
  <rect x="12" y="68" width="116" height="72" rx="6" fill="#fff" stroke="#e5e7eb"/>
  <text x="24" y="96" font-family="system-ui,sans-serif" font-size="11" fill="#6b7280">DUE TODAY</text>
  <text x="24" y="120" font-family="system-ui,sans-serif" font-size="24" font-weight="700" fill="#f97316">5</text>
  <rect x="136" y="68" width="116" height="72" rx="6" fill="#fff" stroke="#e5e7eb"/>
  <text x="148" y="96" font-family="system-ui,sans-serif" font-size="11" fill="#6b7280">NEW LEADS</text>
  <text x="148" y="120" font-family="system-ui,sans-serif" font-size="24" font-weight="700" fill="#1f2937">2</text>
  <rect x="260" y="68" width="128" height="72" rx="6" fill="#fff" stroke="#e5e7eb"/>
  <text x="272" y="96" font-family="system-ui,sans-serif" font-size="11" fill="#6b7280">DONE</text>
  <text x="272" y="120" font-family="system-ui,sans-serif" font-size="24" font-weight="700" fill="#059669">3</text>
  <rect x="12" y="152" width="376" height="44" rx="4" fill="#fff" stroke="#e5e7eb"/>
  <text x="24" y="180" font-family="system-ui,sans-serif" font-size="14" fill="#1f2937">" Tendai M.  Follow up (2pm)</text>
  <rect x="12" y="204" width="376" height="44" rx="4" fill="#fff" stroke="#e5e7eb"/>
  <text x="24" y="232" font-family="system-ui,sans-serif" font-size="14" fill="#1f2937">" Sarah K.  Send quote</text>
  <text x="24" y="256" font-family="system-ui,sans-serif" font-size="12" fill="#6b7280">Daily dashboard</text>
</svg>
